<svg width="90" height="91" viewBox="0 0 90 91" fill="none" xmlns="http://www.w3.org/2000/svg">
<g filter="url(#filter0_d_8_5303)">
<path d="M2.5 24.5C2.5 11.2452 13.2452 0.5 26.5 0.5H63.5C76.7548 0.5 87.5 11.2452 87.5 24.5V62.5C87.5 75.7548 76.7548 86.5 63.5 86.5H26.5C13.2452 86.5 2.5 75.7548 2.5 62.5V24.5Z" fill="url(#paint0_linear_8_5303)" shape-rendering="crispEdges"/>
<path d="M26.5 1H63.5C76.4787 1 87 11.5213 87 24.5V62.5C87 75.4787 76.4787 86 63.5 86H26.5C13.5213 86 3 75.4787 3 62.5V24.5C3 11.5213 13.5213 1 26.5 1Z" stroke="black" stroke-opacity="0.12" shape-rendering="crispEdges"/>
<g filter="url(#filter1_i_8_5303)">
<path fill-rule="evenodd" clip-rule="evenodd" d="M32.4385 33.5753C31.2464 34.1475 29.8578 34.5 28.125 34.5C26.3502 34.5 24.9428 34.1533 23.7419 33.5722C22.6193 33.029 21.7632 32.3152 21.1157 31.7753C21.0968 31.7596 21.0781 31.7439 21.0596 31.7285C20.105 30.933 19.976 29.5142 20.7715 28.5596C21.567 27.605 22.9858 27.476 23.9404 28.2715C24.6365 28.8516 25.1135 29.2368 25.7019 29.5215C26.2447 29.7842 26.9748 30 28.125 30C29.2047 30 29.9255 29.79 30.4912 29.5184C31.1048 29.2239 31.6188 28.8236 32.3444 28.243C32.3633 28.228 32.3823 28.2128 32.4014 28.1974C33.0746 27.6586 33.949 26.9587 35.0615 26.4247C36.2536 25.8525 37.6422 25.5 39.375 25.5C41.1498 25.5 42.5572 25.8467 43.7581 26.4278C44.8807 26.971 45.7368 27.6848 46.3843 28.2247C46.4032 28.2405 46.4219 28.2561 46.4404 28.2715C47.1365 28.8516 47.6135 29.2368 48.2019 29.5215C48.7447 29.7842 49.4748 30 50.625 30C51.7047 30 52.4255 29.79 52.9912 29.5184C53.6048 29.2239 54.1188 28.8236 54.8444 28.243C54.8633 28.228 54.8823 28.2128 54.9014 28.1974C55.5746 27.6586 56.449 26.9587 57.5615 26.4247C58.7536 25.8525 60.1422 25.5 61.875 25.5C63.6498 25.5 65.0572 25.8467 66.2581 26.4278C67.3807 26.971 68.2368 27.6848 68.8843 28.2247L68.9404 28.2715C69.895 29.067 70.024 30.4858 69.2285 31.4404C68.433 32.395 67.0142 32.524 66.0596 31.7285C65.3635 31.1484 64.8865 30.7632 64.2981 30.4785C63.7553 30.2158 63.0252 30 61.875 30C60.7953 30 60.0745 30.21 59.5088 30.4816C58.8952 30.7761 58.3812 31.1764 57.6556 31.757L57.5986 31.8026C56.9254 32.3414 56.051 33.0413 54.9385 33.5753C53.7464 34.1475 52.3578 34.5 50.625 34.5C48.8502 34.5 47.4428 34.1533 46.2419 33.5722C45.1193 33.029 44.2632 32.3152 43.6157 31.7753C43.5968 31.7595 43.5781 31.7439 43.5596 31.7285C42.8635 31.1484 42.3865 30.7632 41.7981 30.4785C41.2553 30.2158 40.5252 30 39.375 30C38.2953 30 37.5745 30.21 37.0088 30.4816C36.3952 30.7761 35.8812 31.1764 35.1556 31.757C35.1367 31.772 35.1177 31.7872 35.0986 31.8026C34.4254 32.3414 33.551 33.0413 32.4385 33.5753ZM32.4385 47.0753C31.2464 47.6475 29.8578 48 28.125 48C26.3502 48 24.9428 47.6533 23.7419 47.0722C22.6193 46.529 21.7632 45.8152 21.1157 45.2753C21.0968 45.2595 21.0781 45.2439 21.0596 45.2285C20.105 44.433 19.976 43.0142 20.7715 42.0596C21.567 41.105 22.9858 40.976 23.9404 41.7715C24.6365 42.3516 25.1135 42.7368 25.7019 43.0215C26.2447 43.2842 26.9748 43.5 28.125 43.5C29.2047 43.5 29.9255 43.29 30.4912 43.0184C31.1048 42.7239 31.6188 42.3236 32.3444 41.743C32.3633 41.728 32.3823 41.7128 32.4014 41.6974C33.0746 41.1586 33.949 40.4587 35.0615 39.9247C36.2536 39.3525 37.6422 39 39.375 39C41.1498 39 42.5572 39.3467 43.7581 39.9278C44.8807 40.471 45.7368 41.1848 46.3843 41.7247C46.4032 41.7405 46.4219 41.7561 46.4404 41.7715C47.1365 42.3516 47.6135 42.7368 48.2019 43.0215C48.7447 43.2842 49.4748 43.5 50.625 43.5C51.7047 43.5 52.4255 43.29 52.9912 43.0184C53.6048 42.7239 54.1188 42.3236 54.8444 41.743C54.8633 41.728 54.8823 41.7128 54.9014 41.6974C55.5746 41.1586 56.449 40.4587 57.5615 39.9247C58.7536 39.3525 60.1422 39 61.875 39C63.6498 39 65.0572 39.3467 66.2581 39.9278C67.3807 40.471 68.2368 41.1848 68.8843 41.7247L68.9404 41.7715C69.895 42.567 70.024 43.9858 69.2285 44.9404C68.433 45.895 67.0142 46.024 66.0596 45.2285C65.3635 44.6484 64.8865 44.2632 64.2981 43.9785C63.7553 43.7158 63.0252 43.5 61.875 43.5C60.7953 43.5 60.0745 43.71 59.5088 43.9816C58.8952 44.2761 58.3812 44.6764 57.6556 45.257L57.5986 45.3026C56.9254 45.8414 56.051 46.5413 54.9385 47.0753C53.7464 47.6475 52.3578 48 50.625 48C48.8502 48 47.4428 47.6533 46.2419 47.0722C45.1192 46.529 44.2632 45.8152 43.6157 45.2753C43.5968 45.2595 43.5781 45.2439 43.5596 45.2285C42.8635 44.6484 42.3865 44.2632 41.7981 43.9785C41.2553 43.7158 40.5252 43.5 39.375 43.5C38.2953 43.5 37.5745 43.71 37.0088 43.9816C36.3952 44.2761 35.8812 44.6764 35.1556 45.257C35.1367 45.272 35.1177 45.2872 35.0986 45.3026C34.4254 45.8414 33.551 46.5413 32.4385 47.0753ZM32.4385 60.5753C31.2464 61.1475 29.8578 61.5 28.125 61.5C26.3502 61.5 24.9428 61.1533 23.7419 60.5722C22.6192 60.029 21.7632 59.3152 21.1157 58.7753C21.0968 58.7595 21.0781 58.7439 21.0596 58.7285C20.105 57.933 19.976 56.5142 20.7715 55.5596C21.567 54.605 22.9858 54.476 23.9404 55.2715C24.6365 55.8516 25.1135 56.2368 25.7019 56.5215C26.2447 56.7842 26.9748 57 28.125 57C29.2047 57 29.9255 56.79 30.4912 56.5184C31.1048 56.2239 31.6188 55.8236 32.3444 55.243C32.3633 55.228 32.3823 55.2128 32.4014 55.1974C33.0746 54.6586 33.949 53.9587 35.0615 53.4247C36.2536 52.8525 37.6422 52.5 39.375 52.5C41.1498 52.5 42.5572 52.8467 43.7581 53.4278C44.8807 53.971 45.7368 54.6848 46.3843 55.2247C46.4032 55.2405 46.4219 55.2561 46.4404 55.2715C47.1365 55.8516 47.6135 56.2368 48.2019 56.5215C48.7447 56.7842 49.4748 57 50.625 57C51.7047 57 52.4255 56.79 52.9912 56.5184C53.6048 56.2239 54.1188 55.8236 54.8444 55.243L54.9014 55.1974C55.5746 54.6586 56.449 53.9587 57.5615 53.4247C58.7536 52.8525 60.1422 52.5 61.875 52.5C63.6498 52.5 65.0572 52.8467 66.2581 53.4278C67.3807 53.971 68.2368 54.6848 68.8843 55.2247L68.9404 55.2715C69.895 56.067 70.024 57.4858 69.2285 58.4404C68.433 59.395 67.0142 59.524 66.0596 58.7285C65.3635 58.1484 64.8865 57.7632 64.2981 57.4785C63.7553 57.2158 63.0252 57 61.875 57C60.7953 57 60.0745 57.21 59.5088 57.4816C58.8952 57.7761 58.3812 58.1764 57.6556 58.757L57.5986 58.8026C56.9254 59.3414 56.051 60.0413 54.9385 60.5753C53.7464 61.1475 52.3578 61.5 50.625 61.5C48.8502 61.5 47.4428 61.1533 46.2419 60.5722C45.1192 60.029 44.2632 59.3152 43.6157 58.7753C43.5968 58.7595 43.5781 58.7439 43.5596 58.7285C42.8635 58.1484 42.3865 57.7632 41.7981 57.4785C41.2553 57.2158 40.5252 57 39.375 57C38.2953 57 37.5745 57.21 37.0088 57.4816C36.3952 57.7761 35.8812 58.1764 35.1556 58.757C35.1367 58.772 35.1177 58.7872 35.0986 58.8026C34.4254 59.3414 33.551 60.0413 32.4385 60.5753Z" fill="url(#paint1_linear_8_5303)"/>
</g>
</g>
<defs>
<filter id="filter0_d_8_5303" x="0.5" y="0.5" width="89" height="90" filterUnits="userSpaceOnUse" color-interpolation-filters="sRGB">
<feFlood flood-opacity="0" result="BackgroundImageFix"/>
<feColorMatrix in="SourceAlpha" type="matrix" values="0 0 0 0 0 0 0 0 0 0 0 0 0 0 0 0 0 0 127 0" result="hardAlpha"/>
<feOffset dy="2"/>
<feGaussianBlur stdDeviation="1"/>
<feComposite in2="hardAlpha" operator="out"/>
<feColorMatrix type="matrix" values="0 0 0 0 0 0 0 0 0 0 0 0 0 0 0 0 0 0 0.16 0"/>
<feBlend mode="normal" in2="BackgroundImageFix" result="effect1_dropShadow_8_5303"/>
<feBlend mode="normal" in="SourceGraphic" in2="effect1_dropShadow_8_5303" result="shape"/>
</filter>
<filter id="filter1_i_8_5303" x="18" y="16.5" width="54" height="56" filterUnits="userSpaceOnUse" color-interpolation-filters="sRGB">
<feFlood flood-opacity="0" result="BackgroundImageFix"/>
<feBlend mode="normal" in="SourceGraphic" in2="BackgroundImageFix" result="shape"/>
<feColorMatrix in="SourceAlpha" type="matrix" values="0 0 0 0 0 0 0 0 0 0 0 0 0 0 0 0 0 0 127 0" result="hardAlpha"/>
<feOffset dy="2"/>
<feGaussianBlur stdDeviation="1"/>
<feComposite in2="hardAlpha" operator="arithmetic" k2="-1" k3="1"/>
<feColorMatrix type="matrix" values="0 0 0 0 0 0 0 0 0 0 0 0 0 0 0 0 0 0 0.25 0"/>
<feBlend mode="normal" in2="shape" result="effect1_innerShadow_8_5303"/>
</filter>
<linearGradient id="paint0_linear_8_5303" x1="45" y1="-13.59" x2="45" y2="86.5" gradientUnits="userSpaceOnUse">
<stop stop-color="#1ACEFD"/>
<stop offset="1" stop-color="#1054BE"/>
</linearGradient>
<linearGradient id="paint1_linear_8_5303" x1="45" y1="2.45804" x2="45" y2="85.0044" gradientUnits="userSpaceOnUse">
<stop stop-color="#1161C5"/>
<stop offset="1" stop-color="#050C15"/>
</linearGradient>
</defs>
</svg>
