<svg width="89" height="90" viewBox="0 0 89 90" fill="none" xmlns="http://www.w3.org/2000/svg">
<g filter="url(#filter0_d_8_5245)">
<rect x="2" width="85" height="86" rx="24" fill="black" shape-rendering="crispEdges"/>
<rect x="3" y="1" width="83" height="84" rx="23" stroke="url(#paint0_linear_8_5245)" stroke-width="2" shape-rendering="crispEdges"/>
<path d="M12 20.6556C12 19.2921 13.1054 18.1868 14.4689 18.1868H19.5817C20.9452 18.1868 22.0506 19.2921 22.0506 20.6556C22.0506 22.0192 20.9452 23.1245 19.5817 23.1245H14.4689C13.1054 23.1245 12 22.0192 12 20.6556Z" fill="#585859"/>
<path d="M12 20.6556C12 19.2921 13.1054 18.1868 14.4689 18.1868H19.5817C20.9452 18.1868 22.0506 19.2921 22.0506 20.6556C22.0506 22.0192 20.9452 23.1245 19.5817 23.1245H14.4689C13.1054 23.1245 12 22.0192 12 20.6556Z" fill="url(#paint1_linear_8_5245)" fill-opacity="0.2" style="mix-blend-mode:hard-light"/>
<path d="M26.0506 20.6556C26.0506 19.2921 27.1559 18.1868 28.5194 18.1868H35.7925C37.156 18.1868 38.2613 19.2921 38.2613 20.6556C38.2613 22.0192 37.156 23.1245 35.7925 23.1245H28.5194C27.1559 23.1245 26.0506 22.0192 26.0506 20.6556Z" fill="#5480F2"/>
<path d="M26.0506 20.6556C26.0506 19.2921 27.1559 18.1868 28.5194 18.1868H35.7925C37.156 18.1868 38.2613 19.2921 38.2613 20.6556C38.2613 22.0192 37.156 23.1245 35.7925 23.1245H28.5194C27.1559 23.1245 26.0506 22.0192 26.0506 20.6556Z" fill="url(#paint2_linear_8_5245)" fill-opacity="0.2" style="mix-blend-mode:hard-light"/>
<path d="M42.2613 20.6556C42.2613 19.2921 43.3667 18.1868 44.7302 18.1868H74.5311C75.8946 18.1868 77 19.2921 77 20.6556C77 22.0192 75.8946 23.1245 74.5311 23.1245H44.7302C43.3667 23.1245 42.2613 22.0192 42.2613 20.6556Z" fill="#D9D9D9" fill-opacity="0.7"/>
<path d="M42.2613 20.6556C42.2613 19.2921 43.3667 18.1868 44.7302 18.1868H74.5311C75.8946 18.1868 77 19.2921 77 20.6556C77 22.0192 75.8946 23.1245 74.5311 23.1245H44.7302C43.3667 23.1245 42.2613 22.0192 42.2613 20.6556Z" fill="url(#paint3_linear_8_5245)" fill-opacity="0.2" style="mix-blend-mode:hard-light"/>
<path d="M12 29.5934C12 28.2299 13.1054 27.1245 14.4689 27.1245H19.5817C20.9452 27.1245 22.0506 28.2299 22.0506 29.5934C22.0506 30.9569 20.9452 32.0623 19.5817 32.0623H14.4689C13.1054 32.0623 12 30.9569 12 29.5934Z" fill="#585859"/>
<path d="M12 29.5934C12 28.2299 13.1054 27.1245 14.4689 27.1245H19.5817C20.9452 27.1245 22.0506 28.2299 22.0506 29.5934C22.0506 30.9569 20.9452 32.0623 19.5817 32.0623H14.4689C13.1054 32.0623 12 30.9569 12 29.5934Z" fill="url(#paint4_linear_8_5245)" fill-opacity="0.2" style="mix-blend-mode:hard-light"/>
<path d="M26.0506 29.5934C26.0506 28.2299 27.1559 27.1245 28.5194 27.1245H34.4861C35.8496 27.1245 36.9549 28.2299 36.9549 29.5934C36.9549 30.9569 35.8496 32.0623 34.4861 32.0623H28.5194C27.1559 32.0623 26.0506 30.9569 26.0506 29.5934Z" fill="#EA3D39"/>
<path d="M26.0506 29.5934C26.0506 28.2299 27.1559 27.1245 28.5194 27.1245H34.4861C35.8496 27.1245 36.9549 28.2299 36.9549 29.5934C36.9549 30.9569 35.8496 32.0623 34.4861 32.0623H28.5194C27.1559 32.0623 26.0506 30.9569 26.0506 29.5934Z" fill="url(#paint5_linear_8_5245)" fill-opacity="0.2" style="mix-blend-mode:hard-light"/>
<path d="M40.9549 29.5934C40.9549 28.2299 42.0603 27.1245 43.4238 27.1245H65.276C66.6396 27.1245 67.7449 28.2299 67.7449 29.5934C67.7449 30.9569 66.6396 32.0623 65.276 32.0623H43.4238C42.0603 32.0623 40.9549 30.9569 40.9549 29.5934Z" fill="#D9D9D9" fill-opacity="0.7"/>
<path d="M40.9549 29.5934C40.9549 28.2299 42.0603 27.1245 43.4238 27.1245H65.276C66.6396 27.1245 67.7449 28.2299 67.7449 29.5934C67.7449 30.9569 66.6396 32.0623 65.276 32.0623H43.4238C42.0603 32.0623 40.9549 30.9569 40.9549 29.5934Z" fill="url(#paint6_linear_8_5245)" fill-opacity="0.2" style="mix-blend-mode:hard-light"/>
<path d="M12 38.5311C12 37.1676 13.1054 36.0623 14.4689 36.0623H19.5817C20.9452 36.0623 22.0506 37.1676 22.0506 38.5311C22.0506 39.8946 20.9452 41 19.5817 41H14.4689C13.1054 41 12 39.8946 12 38.5311Z" fill="#585859"/>
<path d="M12 38.5311C12 37.1676 13.1054 36.0623 14.4689 36.0623H19.5817C20.9452 36.0623 22.0506 37.1676 22.0506 38.5311C22.0506 39.8946 20.9452 41 19.5817 41H14.4689C13.1054 41 12 39.8946 12 38.5311Z" fill="url(#paint7_linear_8_5245)" fill-opacity="0.2" style="mix-blend-mode:hard-light"/>
<path d="M26.0506 38.5311C26.0506 37.1676 27.1559 36.0623 28.5194 36.0623H40.1649C41.5284 36.0623 42.6338 37.1676 42.6338 38.5311C42.6338 39.8946 41.5284 41 40.1649 41H28.5194C27.1559 41 26.0506 39.8946 26.0506 38.5311Z" fill="#00B95C"/>
<path d="M26.0506 38.5311C26.0506 37.1676 27.1559 36.0623 28.5194 36.0623H40.1649C41.5284 36.0623 42.6338 37.1676 42.6338 38.5311C42.6338 39.8946 41.5284 41 40.1649 41H28.5194C27.1559 41 26.0506 39.8946 26.0506 38.5311Z" fill="url(#paint8_linear_8_5245)" fill-opacity="0.2" style="mix-blend-mode:hard-light"/>
<path d="M46.6338 38.5311C46.6338 37.1676 47.7391 36.0623 49.1026 36.0623H61.991C63.3545 36.0623 64.4598 37.1676 64.4598 38.5311C64.4598 39.8946 63.3545 41 61.991 41H49.1026C47.7391 41 46.6338 39.8946 46.6338 38.5311Z" fill="#D9D9D9" fill-opacity="0.7"/>
<path d="M46.6338 38.5311C46.6338 37.1676 47.7391 36.0623 49.1026 36.0623H61.991C63.3545 36.0623 64.4598 37.1676 64.4598 38.5311C64.4598 39.8946 63.3545 41 61.991 41H49.1026C47.7391 41 46.6338 39.8946 46.6338 38.5311Z" fill="url(#paint9_linear_8_5245)" fill-opacity="0.2" style="mix-blend-mode:hard-light"/>
<path d="M12 47.4689C12 46.1054 13.1054 45 14.4689 45H19.5817C20.9452 45 22.0506 46.1054 22.0506 47.4689C22.0506 48.8324 20.9452 49.9377 19.5817 49.9377H14.4689C13.1054 49.9377 12 48.8324 12 47.4689Z" fill="#585859"/>
<path d="M12 47.4689C12 46.1054 13.1054 45 14.4689 45H19.5817C20.9452 45 22.0506 46.1054 22.0506 47.4689C22.0506 48.8324 20.9452 49.9377 19.5817 49.9377H14.4689C13.1054 49.9377 12 48.8324 12 47.4689Z" fill="url(#paint10_linear_8_5245)" fill-opacity="0.2" style="mix-blend-mode:hard-light"/>
<path d="M26.0506 47.4689C26.0506 46.1054 27.1559 45 28.5194 45H36.7404C38.1039 45 39.2093 46.1054 39.2093 47.4689C39.2093 48.8324 38.1039 49.9377 36.7404 49.9377H28.5194C27.1559 49.9377 26.0506 48.8324 26.0506 47.4689Z" fill="#5480F2"/>
<path d="M26.0506 47.4689C26.0506 46.1054 27.1559 45 28.5194 45H36.7404C38.1039 45 39.2093 46.1054 39.2093 47.4689C39.2093 48.8324 38.1039 49.9377 36.7404 49.9377H28.5194C27.1559 49.9377 26.0506 48.8324 26.0506 47.4689Z" fill="url(#paint11_linear_8_5245)" fill-opacity="0.2" style="mix-blend-mode:hard-light"/>
<path d="M43.2093 47.4689C43.2093 46.1054 44.3146 45 45.6782 45H68.9328C70.2963 45 71.4017 46.1054 71.4017 47.4689C71.4017 48.8324 70.2963 49.9377 68.9328 49.9377H45.6782C44.3146 49.9377 43.2093 48.8324 43.2093 47.4689Z" fill="#D9D9D9" fill-opacity="0.7"/>
<path d="M43.2093 47.4689C43.2093 46.1054 44.3146 45 45.6782 45H68.9328C70.2963 45 71.4017 46.1054 71.4017 47.4689C71.4017 48.8324 70.2963 49.9377 68.9328 49.9377H45.6782C44.3146 49.9377 43.2093 48.8324 43.2093 47.4689Z" fill="url(#paint12_linear_8_5245)" fill-opacity="0.2" style="mix-blend-mode:hard-light"/>
<path d="M12 56.4066C12 55.0431 13.1054 53.9377 14.4689 53.9377H19.5817C20.9452 53.9377 22.0506 55.0431 22.0506 56.4066C22.0506 57.7701 20.9452 58.8755 19.5817 58.8755H14.4689C13.1054 58.8755 12 57.7701 12 56.4066Z" fill="#585859"/>
<path d="M12 56.4066C12 55.0431 13.1054 53.9377 14.4689 53.9377H19.5817C20.9452 53.9377 22.0506 55.0431 22.0506 56.4066C22.0506 57.7701 20.9452 58.8755 19.5817 58.8755H14.4689C13.1054 58.8755 12 57.7701 12 56.4066Z" fill="url(#paint13_linear_8_5245)" fill-opacity="0.2" style="mix-blend-mode:hard-light"/>
<path d="M26.0506 56.4066C26.0506 55.0431 27.1559 53.9377 28.5194 53.9377H33.9922C35.3557 53.9377 36.4611 55.0431 36.4611 56.4066C36.4611 57.7701 35.3557 58.8755 33.9922 58.8755H28.5194C27.1559 58.8755 26.0506 57.7701 26.0506 56.4066Z" fill="#FC413D"/>
<path d="M26.0506 56.4066C26.0506 55.0431 27.1559 53.9377 28.5194 53.9377H33.9922C35.3557 53.9377 36.4611 55.0431 36.4611 56.4066C36.4611 57.7701 35.3557 58.8755 33.9922 58.8755H28.5194C27.1559 58.8755 26.0506 57.7701 26.0506 56.4066Z" fill="url(#paint14_linear_8_5245)" fill-opacity="0.2" style="mix-blend-mode:hard-light"/>
<path d="M40.4611 56.4066C40.4611 55.0431 41.5664 53.9377 42.9299 53.9377H63.8924C65.2559 53.9377 66.3613 55.0431 66.3613 56.4066C66.3613 57.7701 65.2559 58.8755 63.8924 58.8755H42.9299C41.5664 58.8755 40.4611 57.7701 40.4611 56.4066Z" fill="#D9D9D9" fill-opacity="0.7"/>
<path d="M40.4611 56.4066C40.4611 55.0431 41.5664 53.9377 42.9299 53.9377H63.8924C65.2559 53.9377 66.3613 55.0431 66.3613 56.4066C66.3613 57.7701 65.2559 58.8755 63.8924 58.8755H42.9299C41.5664 58.8755 40.4611 57.7701 40.4611 56.4066Z" fill="url(#paint15_linear_8_5245)" fill-opacity="0.2" style="mix-blend-mode:hard-light"/>
<path d="M12 65.3444C12 63.9808 13.1054 62.8755 14.4689 62.8755H19.5817C20.9452 62.8755 22.0506 63.9808 22.0506 65.3444C22.0506 66.7079 20.9452 67.8132 19.5817 67.8132H14.4689C13.1054 67.8132 12 66.7079 12 65.3444Z" fill="#585859"/>
<path d="M12 65.3444C12 63.9808 13.1054 62.8755 14.4689 62.8755H19.5817C20.9452 62.8755 22.0506 63.9808 22.0506 65.3444C22.0506 66.7079 20.9452 67.8132 19.5817 67.8132H14.4689C13.1054 67.8132 12 66.7079 12 65.3444Z" fill="url(#paint16_linear_8_5245)" fill-opacity="0.2" style="mix-blend-mode:hard-light"/>
<path d="M26.0506 65.3444C26.0506 63.9808 27.1559 62.8755 28.5194 62.8755H36.7404C38.1039 62.8755 39.2093 63.9808 39.2093 65.3444C39.2093 66.7079 38.1039 67.8132 36.7404 67.8132H28.5194C27.1559 67.8132 26.0506 66.7079 26.0506 65.3444Z" fill="#5480F2"/>
<path d="M26.0506 65.3444C26.0506 63.9808 27.1559 62.8755 28.5194 62.8755H36.7404C38.1039 62.8755 39.2093 63.9808 39.2093 65.3444C39.2093 66.7079 38.1039 67.8132 36.7404 67.8132H28.5194C27.1559 67.8132 26.0506 66.7079 26.0506 65.3444Z" fill="url(#paint17_linear_8_5245)" fill-opacity="0.2" style="mix-blend-mode:hard-light"/>
<rect x="43.2093" y="62.8755" width="26.9076" height="4.93774" rx="2.46887" fill="#D9D9D9" fill-opacity="0.7"/>
<rect x="43.2093" y="62.8755" width="26.9076" height="4.93774" rx="2.46887" fill="url(#paint18_linear_8_5245)" fill-opacity="0.2" style="mix-blend-mode:hard-light"/>
</g>
<defs>
<filter id="filter0_d_8_5245" x="0" y="0" width="89" height="90" filterUnits="userSpaceOnUse" color-interpolation-filters="sRGB">
<feFlood flood-opacity="0" result="BackgroundImageFix"/>
<feColorMatrix in="SourceAlpha" type="matrix" values="0 0 0 0 0 0 0 0 0 0 0 0 0 0 0 0 0 0 127 0" result="hardAlpha"/>
<feOffset dy="2"/>
<feGaussianBlur stdDeviation="1"/>
<feComposite in2="hardAlpha" operator="out"/>
<feColorMatrix type="matrix" values="0 0 0 0 0 0 0 0 0 0 0 0 0 0 0 0 0 0 0.16 0"/>
<feBlend mode="normal" in2="BackgroundImageFix" result="effect1_dropShadow_8_5245"/>
<feBlend mode="normal" in="SourceGraphic" in2="effect1_dropShadow_8_5245" result="shape"/>
</filter>
<linearGradient id="paint0_linear_8_5245" x1="44.5" y1="-30.139" x2="44.5" y2="128.194" gradientUnits="userSpaceOnUse">
<stop stop-color="#666666"/>
<stop offset="1"/>
</linearGradient>
<linearGradient id="paint1_linear_8_5245" x1="17.0253" y1="18.1868" x2="17.0253" y2="23.1245" gradientUnits="userSpaceOnUse">
<stop stop-opacity="0"/>
<stop offset="0.961538"/>
</linearGradient>
<linearGradient id="paint2_linear_8_5245" x1="32.1559" y1="18.1868" x2="32.1559" y2="23.1245" gradientUnits="userSpaceOnUse">
<stop stop-opacity="0"/>
<stop offset="0.961538"/>
</linearGradient>
<linearGradient id="paint3_linear_8_5245" x1="59.6307" y1="18.1868" x2="59.6307" y2="23.1245" gradientUnits="userSpaceOnUse">
<stop stop-opacity="0"/>
<stop offset="0.961538"/>
</linearGradient>
<linearGradient id="paint4_linear_8_5245" x1="17.0253" y1="27.1245" x2="17.0253" y2="32.0623" gradientUnits="userSpaceOnUse">
<stop stop-opacity="0"/>
<stop offset="0.961538"/>
</linearGradient>
<linearGradient id="paint5_linear_8_5245" x1="31.5027" y1="27.1245" x2="31.5027" y2="32.0623" gradientUnits="userSpaceOnUse">
<stop stop-opacity="0"/>
<stop offset="0.961538"/>
</linearGradient>
<linearGradient id="paint6_linear_8_5245" x1="54.3499" y1="27.1245" x2="54.3499" y2="32.0623" gradientUnits="userSpaceOnUse">
<stop stop-opacity="0"/>
<stop offset="0.961538"/>
</linearGradient>
<linearGradient id="paint7_linear_8_5245" x1="17.0253" y1="36.0623" x2="17.0253" y2="41" gradientUnits="userSpaceOnUse">
<stop stop-opacity="0"/>
<stop offset="0.961538"/>
</linearGradient>
<linearGradient id="paint8_linear_8_5245" x1="34.3422" y1="36.0623" x2="34.3422" y2="41" gradientUnits="userSpaceOnUse">
<stop stop-opacity="0"/>
<stop offset="0.961538"/>
</linearGradient>
<linearGradient id="paint9_linear_8_5245" x1="55.5468" y1="36.0623" x2="55.5468" y2="41" gradientUnits="userSpaceOnUse">
<stop stop-opacity="0"/>
<stop offset="0.961538"/>
</linearGradient>
<linearGradient id="paint10_linear_8_5245" x1="17.0253" y1="45" x2="17.0253" y2="49.9377" gradientUnits="userSpaceOnUse">
<stop stop-opacity="0"/>
<stop offset="0.961538"/>
</linearGradient>
<linearGradient id="paint11_linear_8_5245" x1="32.6299" y1="45" x2="32.6299" y2="49.9377" gradientUnits="userSpaceOnUse">
<stop stop-opacity="0"/>
<stop offset="0.961538"/>
</linearGradient>
<linearGradient id="paint12_linear_8_5245" x1="57.3055" y1="45" x2="57.3055" y2="49.9377" gradientUnits="userSpaceOnUse">
<stop stop-opacity="0"/>
<stop offset="0.961538"/>
</linearGradient>
<linearGradient id="paint13_linear_8_5245" x1="17.0253" y1="53.9377" x2="17.0253" y2="58.8755" gradientUnits="userSpaceOnUse">
<stop stop-opacity="0"/>
<stop offset="0.961538"/>
</linearGradient>
<linearGradient id="paint14_linear_8_5245" x1="31.2558" y1="53.9377" x2="31.2558" y2="58.8755" gradientUnits="userSpaceOnUse">
<stop stop-opacity="0"/>
<stop offset="0.961538"/>
</linearGradient>
<linearGradient id="paint15_linear_8_5245" x1="53.4112" y1="53.9377" x2="53.4112" y2="58.8755" gradientUnits="userSpaceOnUse">
<stop stop-opacity="0"/>
<stop offset="0.961538"/>
</linearGradient>
<linearGradient id="paint16_linear_8_5245" x1="17.0253" y1="62.8755" x2="17.0253" y2="67.8132" gradientUnits="userSpaceOnUse">
<stop stop-opacity="0"/>
<stop offset="0.961538"/>
</linearGradient>
<linearGradient id="paint17_linear_8_5245" x1="32.6299" y1="62.8755" x2="32.6299" y2="67.8132" gradientUnits="userSpaceOnUse">
<stop stop-opacity="0"/>
<stop offset="0.961538"/>
</linearGradient>
<linearGradient id="paint18_linear_8_5245" x1="56.6631" y1="62.8755" x2="56.6631" y2="67.8132" gradientUnits="userSpaceOnUse">
<stop stop-opacity="0"/>
<stop offset="0.961538"/>
</linearGradient>
</defs>
</svg>
