<svg width="90" height="90" viewBox="0 0 90 90" fill="none" xmlns="http://www.w3.org/2000/svg">
<g filter="url(#filter0_d_8_4051)">
<rect x="2.58701" width="85" height="86" rx="24" fill="black" shape-rendering="crispEdges"/>
<rect x="3.08701" y="0.5" width="84" height="85" rx="23.5" stroke="#CFCFCF" stroke-opacity="0.12" shape-rendering="crispEdges"/>
<path d="M70.6753 37.6529C72.0308 33.6387 71.564 29.2413 69.3964 25.59C66.1366 19.9896 59.5834 17.1084 53.1832 18.4643C50.336 15.2993 46.2454 13.4994 41.9569 13.5252C35.4148 13.5105 29.6103 17.6666 27.5976 23.8086C23.395 24.6578 19.7674 27.2535 17.6446 30.9325C14.3605 36.5181 15.1092 43.5591 19.4966 48.3489C18.1412 52.3631 18.6079 56.7605 20.7756 60.4118C24.0354 66.0122 30.5886 68.8934 36.9887 67.5375C39.8341 70.7025 43.9266 72.5024 48.2151 72.4747C54.7609 72.4913 60.5673 68.3315 62.5799 62.184C66.7826 61.3348 70.4102 58.7391 72.533 55.0601C75.8134 49.4745 75.0628 42.439 70.6772 37.6492L70.6753 37.6529ZM48.2188 68.6226C45.5994 68.6263 43.0621 67.7218 41.0514 66.0656C41.1428 66.0177 41.3015 65.9311 41.4042 65.8685L53.3009 59.0891C53.9095 58.7483 54.2829 58.109 54.2792 57.4182V40.8694L59.3071 43.7341C59.3612 43.7599 59.3967 43.8115 59.4041 43.8704V57.5748C59.3967 63.6689 54.3949 68.6097 48.2188 68.6226ZM24.1642 58.4848C22.8517 56.2484 22.3793 53.6269 22.8293 51.0828C22.917 51.1343 23.072 51.2283 23.1821 51.2909L35.0788 58.0703C35.6818 58.4185 36.4286 58.4185 37.0335 58.0703L51.5571 49.795V55.5244C51.5608 55.5833 51.5328 55.6404 51.4861 55.6773L39.4607 62.5285C34.1042 65.5719 27.2634 63.7628 24.1661 58.4848H24.1642ZM21.0332 32.8613C22.3401 30.6211 24.4032 28.9078 26.8602 28.0181C26.8602 28.1194 26.8546 28.2981 26.8546 28.4233V41.984C26.8508 42.673 27.2242 43.3122 27.831 43.653L42.3545 51.9265L37.3267 54.7912C37.2763 54.8243 37.2128 54.8299 37.1568 54.8059L25.1294 47.9491C19.7842 44.8947 17.9508 38.1466 21.0313 32.8631L21.0332 32.8613ZM62.3428 42.3469L47.8193 34.0716L52.8472 31.2088C52.8976 31.1756 52.9611 31.1701 53.0171 31.1941L65.0444 38.0453C70.399 41.0979 72.2343 47.857 69.1406 53.1405C67.8319 55.377 65.7707 57.0903 63.3155 57.9819V44.016C63.3211 43.327 62.9496 42.6896 62.3447 42.3469H62.3428ZM67.3464 34.9154C67.2587 34.8619 67.1037 34.7698 66.9936 34.7072L55.0969 27.9278C54.4939 27.5796 53.7471 27.5796 53.1422 27.9278L38.6186 36.2031V30.4737C38.6149 30.4148 38.6429 30.3577 38.6896 30.3208L50.715 23.4751C56.0715 20.4262 62.9197 22.2408 66.0078 27.528C67.3128 29.7608 67.7852 32.3749 67.3427 34.9154H67.3464ZM35.8853 45.1268L30.8556 42.2622C30.8014 42.2364 30.766 42.1848 30.7585 42.1258V28.4215C30.7622 22.32 35.7789 17.3755 41.9625 17.3792C44.5782 17.3792 47.1098 18.2856 49.1206 19.9362C49.0291 19.9841 48.8723 20.0707 48.7677 20.1333L36.8711 26.9127C36.2625 27.2535 35.8891 27.8909 35.8928 28.5818L35.8853 45.1231V45.1268ZM38.6168 39.3164L45.086 35.6301L51.5552 39.3146V46.6854L45.086 50.3698L38.6168 46.6854V39.3164Z" fill="white"/>
</g>
<defs>
<filter id="filter0_d_8_4051" x="0.587006" y="0" width="89" height="90" filterUnits="userSpaceOnUse" color-interpolation-filters="sRGB">
<feFlood flood-opacity="0" result="BackgroundImageFix"/>
<feColorMatrix in="SourceAlpha" type="matrix" values="0 0 0 0 0 0 0 0 0 0 0 0 0 0 0 0 0 0 127 0" result="hardAlpha"/>
<feOffset dy="2"/>
<feGaussianBlur stdDeviation="1"/>
<feComposite in2="hardAlpha" operator="out"/>
<feColorMatrix type="matrix" values="0 0 0 0 0 0 0 0 0 0 0 0 0 0 0 0 0 0 0.16 0"/>
<feBlend mode="normal" in2="BackgroundImageFix" result="effect1_dropShadow_8_4051"/>
<feBlend mode="normal" in="SourceGraphic" in2="effect1_dropShadow_8_4051" result="shape"/>
</filter>
</defs>
</svg>
