<svg width="25" height="24" viewBox="0 0 25 24" fill="none" xmlns="http://www.w3.org/2000/svg">
<path d="M21.2072 10.7336C20.7658 10.4365 19.6063 10.3096 18.7635 10.5369C18.7182 9.69722 18.2849 8.98953 17.4929 8.37204L17.1998 8.17531L17.0044 8.47054C16.6203 9.0535 16.4584 9.83051 16.5157 10.5369C16.5609 10.9721 16.7121 11.4611 17.0044 11.816C15.9073 12.4525 14.8958 12.308 10.4168 12.308H3.50153C3.48146 13.3194 3.64393 15.2648 4.88105 16.8485C5.01782 17.0236 5.16744 17.1927 5.33018 17.3557C6.33604 18.363 7.85581 19.1017 10.1282 19.1036C13.5952 19.1068 16.5654 17.2326 18.3724 12.7017C18.9669 12.7113 20.5364 12.8082 21.3046 11.3241C21.3233 11.2992 21.5 10.9306 21.5 10.9306L21.2072 10.7339V10.7336ZM8.01453 9.80883H6.06999V11.7534H8.01453V9.80883ZM10.5265 9.80883H8.58197V11.7534H10.5265V9.80883ZM13.0388 9.80883H11.0942V11.7534H13.0388V9.80883ZM15.551 9.80883H13.6065V11.7534H15.551V9.80883ZM5.50228 9.80883H3.55774V11.7534H5.50228V9.80883ZM8.01453 7.35279H6.06999V9.29734H8.01453V7.35279ZM10.5265 7.35279H8.58197V9.29734H10.5265V7.35279ZM13.0388 7.35279H11.0942V9.29734H13.0388V7.35279ZM13.0388 4.89648H11.0942V6.84103H13.0388V4.89648Z" fill="white"/>
</svg>
