<svg width="25" height="24" viewBox="0 0 25 24" fill="none" xmlns="http://www.w3.org/2000/svg">
<path d="M20.1747 10.3963C20.5812 9.19234 20.4412 7.87343 19.7911 6.77831C18.8134 5.0986 16.8479 4.23443 14.9283 4.6411C14.0743 3.69184 12.8474 3.15201 11.5612 3.15975C9.59904 3.15533 7.8581 4.40185 7.25445 6.24401C5.99395 6.49872 4.90593 7.27725 4.26924 8.38066C3.28425 10.056 3.5088 12.1677 4.82473 13.6043C4.4182 14.8083 4.55819 16.1272 5.20831 17.2223C6.18602 18.9021 8.15152 19.7662 10.0711 19.3596C10.9245 20.3088 12.152 20.8486 13.4382 20.8403C15.4015 20.8453 17.143 19.5977 17.7466 17.7539C19.0071 17.4992 20.0951 16.7206 20.7318 15.6172C21.7157 13.9419 21.4906 11.8318 20.1752 10.3952L20.1747 10.3963ZM13.4393 19.685C12.6537 19.6861 11.8927 19.4148 11.2896 18.9181C11.317 18.9037 11.3646 18.8777 11.3954 18.859L14.9636 16.8256C15.1461 16.7234 15.2581 16.5317 15.257 16.3245V11.361L16.765 12.2202C16.7812 12.228 16.7919 12.2434 16.7941 12.2611V16.3714C16.7919 18.1992 15.2917 19.6811 13.4393 19.685ZM6.22466 16.6444C5.831 15.9736 5.68933 15.1874 5.82428 14.4243C5.8506 14.4398 5.89708 14.468 5.93012 14.4867L9.49825 16.5201C9.67912 16.6245 9.90311 16.6245 10.0845 16.5201L14.4406 14.0381V15.7565C14.4417 15.7741 14.4333 15.7913 14.4193 15.8023L10.8125 17.8572C9.20594 18.77 7.15421 18.2274 6.22522 16.6444H6.22466ZM5.28559 8.95917C5.67757 8.28728 6.29634 7.77343 7.03326 7.50655C7.03326 7.53694 7.03158 7.59054 7.03158 7.62811V11.6953C7.03046 11.902 7.14245 12.0937 7.32444 12.1959L11.6805 14.6774L10.1725 15.5366C10.1573 15.5465 10.1383 15.5482 10.1215 15.541L6.51417 13.4844C4.91097 12.5683 4.36108 10.5444 5.28503 8.95972L5.28559 8.95917ZM17.6755 11.8042L13.3195 9.32218L14.8275 8.46354C14.8426 8.4536 14.8616 8.45194 14.8784 8.45912L18.4858 10.514C20.0918 11.4296 20.6422 13.4568 19.7144 15.0415C19.3218 15.7123 18.7036 16.2261 17.9672 16.4935V12.3048C17.9689 12.0981 17.8575 11.9069 17.6761 11.8042H17.6755ZM19.1762 9.57525C19.1499 9.55922 19.1034 9.5316 19.0704 9.51281L15.5023 7.47948C15.3214 7.37505 15.0974 7.37505 14.916 7.47948L10.56 9.96147V8.24308C10.5588 8.2254 10.5672 8.20827 10.5812 8.19722L14.188 6.144C15.7946 5.22955 17.8485 5.7738 18.7747 7.35958C19.1661 8.02925 19.3078 8.8133 19.1751 9.57525H19.1762ZM9.74016 12.638L8.2316 11.7788C8.21536 11.771 8.20472 11.7556 8.20248 11.7379V7.62756C8.2036 5.79756 9.70824 4.31455 11.5629 4.31566C12.3474 4.31566 13.1067 4.5875 13.7098 5.08258C13.6824 5.09694 13.6353 5.12291 13.604 5.1417L10.0358 7.17503C9.85327 7.27725 9.74128 7.46843 9.7424 7.67563L9.74016 12.6368V12.638ZM10.5594 10.8953L12.4997 9.78963L14.44 10.8947V13.1054L12.4997 14.2105L10.5594 13.1054V10.8953Z" fill="white"/>
</svg>
